<?xml version="1.0" encoding="UTF-8"?>
<svg width="18px" height="18px" viewBox="0 0 18 18" version="1.1" xmlns="http://www.w3.org/2000/svg" xmlns:xlink="http://www.w3.org/1999/xlink">
    <!-- Generator: Sketch 46.2 (44496) - http://www.bohemiancoding.com/sketch -->
    <title>Shape</title>
    <desc>Created with Sketch.</desc>
    <defs></defs>
    <g id="Symbols" stroke="none" stroke-width="1" fill="none" fill-rule="evenodd">
        <g id="Big-search-bar" transform="translate(-286.000000, -30.000000)" fill-rule="nonzero" fill="#0049B8">
            <g id="Group-2">
                <path d="M293.692677,45.4069628 C295.356543,45.4069628 296.869148,44.8883553 298.144058,43.9807923 L302.163265,48 L304,46.1632653 L299.959184,42.1440576 C300.845138,40.8907563 301.385354,39.3565426 301.385354,37.6926771 C301.385354,33.457383 297.927971,30 293.692677,30 C289.457383,30 286,33.457383 286,37.7142857 C286,41.9711885 289.435774,45.4069628 293.692677,45.4069628 Z M293.692677,32.6146459 C296.501801,32.6146459 298.792317,34.9051621 298.792317,37.7142857 C298.792317,40.5234094 296.501801,42.8139256 293.692677,42.8139256 C290.883553,42.8139256 288.593037,40.5234094 288.593037,37.7142857 C288.593037,34.9051621 290.883553,32.6146459 293.692677,32.6146459 Z" id="Shape"></path>
            </g>
        </g>
    </g>
</svg>